<svg viewBox="-61 0 512 512" xmlns="http://www.w3.org/2000/svg"><path d="m334.394531 163.183594-68.789062-68.789063-21.210938 21.210938-4.246093 288.273437 89.707031 4.246094 25.75-181.308594c3.324219-23.230468-4.597657-47.019531-21.210938-63.632812zm0 0" fill="#b50000"/><path d="m145.605469 115.605469-21.210938-21.210938-68.789062 68.789063c-16.613281 16.609375-24.535157 40.398437-21.210938 63.632812l25.75 181.308594 89.707031-4.25zm0 0" fill="#ff001e"/><path d="m270 300-30 15 30 15v91h-150v-91l30-15-30-15v-210h150zm0 0" fill="#5a5a5a"/><path d="m270 300-30 15 30 15v91h-75v-331h75zm0 0" fill="#444"/><path d="m120 300h150v30h-150zm0 0" fill="#444"/><path d="m195 300h75v30h-75zm0 0" fill="#292929"/><path d="m315 391h-240c-41.398438 0-75 33.601562-75 75v46h390v-46c0-41.398438-33.601562-75-75-75zm0 0" fill="#ff4d4d"/><path d="m390 466v46h-195v-121h120c41.398438 0 75 33.601562 75 75zm0 0" fill="#ff3131"/><path d="m255 0h-120c-24.902344 0-45 20.097656-45 45v30c0 24.898438 20.097656 45 45 45h120c24.902344 0 45-20.101562 45-45v-30c0-24.902344-20.097656-45-45-45zm0 0" fill="#ff4d4d"/><path d="m255 120h-60v-120h60c24.902344 0 45 20.097656 45 45v30c0 24.898438-20.097656 45-45 45zm0 0" fill="#ff3131"/></svg>