<svg viewBox="-61 0 512 512" xmlns="http://www.w3.org/2000/svg"><path d="m0 466v46h390v-46c0-35.503906-24.804688-65.300781-57.984375-73.03125l23.589844-165.148438c3.324219-23.246093-4.609375-47.035156-21.210938-63.640624l-52.289062-52.289063c10.863281-8.222656 17.894531-21.25 17.894531-35.890625v-31c0-24.8125-20.1875-45-45-45h-120c-24.8125 0-45 20.1875-45 45v31c0 14.640625 7.03125 27.667969 17.894531 35.894531l-52.289062 52.285157c-16.601563 16.605468-24.53125 40.394531-21.210938 63.640624l23.59375 165.152344c-33.183593 7.726563-57.988281 37.523438-57.988281 73.027344zm325.90625-242.421875-23.914062 167.421875h-31.992188v-248.785156l43.179688 43.179687c9.964843 9.960938 14.722656 24.234375 12.726562 38.183594zm-85.90625 77.421875h-90v-180h90zm-90 30h90v60h-90zm-30-286c0-8.269531 6.730469-15 15-15h120c8.269531 0 15 6.730469 15 15v31c0 8.269531-6.730469 15-15 15h-120c-8.269531 0-15-6.730469-15-15zm-43.179688 140.394531 43.179688-43.179687v248.785156h-31.992188l-23.914062-167.421875c-1.996094-13.949219 2.761719-28.222656 12.726562-38.183594zm-46.820312 280.605469c0-24.8125 20.1875-45 45-45h240c24.8125 0 45 20.1875 45 45v16h-330zm0 0"/></svg>